<svg width="20" height="19" viewBox="0 0 20 19" fill="none" xmlns="http://www.w3.org/2000/svg">
<path d="M8.0152 0.835181C7.95674 0.731032 7.87238 0.643739 7.77029 0.581754C7.66819 0.51977 7.55183 0.485192 7.43245 0.481369C7.31352 0.47727 7.19553 0.503833 7.08983 0.558506C6.98413 0.613179 6.89427 0.694122 6.82889 0.793556L1.23726 9.36137L1.19564 9.43768C0.776209 10.3981 0.605294 11.4487 0.698649 12.4926C0.792005 13.5365 1.14663 14.5401 1.72983 15.4109C2.27447 16.3383 3.04752 17.1109 3.97532 17.6549C4.90312 18.199 5.95477 18.4964 7.03008 18.5189C8.10643 18.4969 9.15925 18.1998 10.0882 17.6557C11.0172 17.1117 11.7915 16.3389 12.3373 15.4109C12.922 14.5337 13.2752 13.5226 13.3637 12.4721C13.4523 11.4216 13.2734 10.3657 12.8437 9.40299L8.0152 0.835181ZM11.1579 14.7102C10.7324 15.4313 10.13 16.0321 9.40778 16.4558C8.68552 16.8794 7.86719 17.1119 7.03008 17.1314C6.18993 17.107 5.36989 16.8687 4.64756 16.4389C3.92524 16.0092 3.32452 15.4022 2.90226 14.6755C2.44756 14.0099 2.16572 13.2415 2.08215 12.4397C1.99858 11.6379 2.11592 10.828 2.42358 10.0829L7.37002 2.50712L11.6158 10.0482C11.9326 10.7962 12.0567 11.6118 11.9767 12.4202C11.8967 13.2286 11.6152 14.004 11.1579 14.6755V14.7102ZM18.7891 6.46843L18.7545 6.41293L17.0201 3.63793C16.9579 3.53754 16.871 3.45469 16.7678 3.39724C16.6647 3.33979 16.5485 3.30964 16.4304 3.30964C16.3123 3.30964 16.1961 3.33979 16.0929 3.39724C15.9897 3.45469 15.9029 3.53754 15.8407 3.63793L14.1133 6.41293C14.1002 6.43042 14.0886 6.44899 14.0786 6.46843C13.9059 6.86022 13.8338 7.28888 13.8686 7.71559C13.9034 8.14231 14.0441 8.5536 14.278 8.91222C14.5118 9.27084 14.8315 9.56545 15.2079 9.76938C15.5844 9.97331 16.0057 10.0801 16.4339 10.0801C16.862 10.0801 17.2834 9.97331 17.6598 9.76938C18.0363 9.56545 18.3559 9.27084 18.5898 8.91222C18.8236 8.5536 18.9643 8.14231 18.9991 7.71559C19.034 7.28888 18.9618 6.86022 18.7891 6.46843ZM17.4016 8.16812C17.3095 8.34724 17.1698 8.4975 16.9978 8.60242C16.8259 8.70733 16.6284 8.76283 16.4269 8.76283C16.2255 8.76283 16.028 8.70733 15.856 8.60242C15.6841 8.4975 15.5443 8.34724 15.4522 8.16812C15.3453 8.0155 15.2764 7.8396 15.251 7.65501C15.2257 7.47042 15.2447 7.28245 15.3065 7.10668L16.4235 5.30293L17.5473 7.10668C17.5976 7.27524 17.61 7.45283 17.5836 7.62673C17.5572 7.80064 17.4996 8.02206 17.4016 8.16812Z" fill="#00ACB2" stroke="#00ACB2" stroke-width="0.5"/>
</svg>
