<svg width="64" height="64" viewBox="0 0 64 64" fill="none" xmlns="http://www.w3.org/2000/svg">
<path fill-rule="evenodd" clip-rule="evenodd" d="M24 7.88542C24 6.41266 25.1939 5.21875 26.6667 5.21875H37.3333C38.8061 5.21875 40 6.41266 40 7.88542V15.8855H57.3333C58.8061 15.8855 60 17.0794 60 18.5521V29.2188C60 30.6916 58.8061 31.8855 57.3333 31.8855H6.66667C5.19391 31.8855 4 30.6916 4 29.2188V18.5521C4 17.0794 5.19391 15.8855 6.66667 15.8855H24V7.88542ZM29.3333 10.5521V18.5521C29.3333 20.0249 28.1394 21.2188 26.6667 21.2188H9.33333V26.5521H54.6667V21.2188H37.3333C35.8606 21.2188 34.6667 20.0249 34.6667 18.5521V10.5521H29.3333Z" fill="#00ACB2"/>
<path fill-rule="evenodd" clip-rule="evenodd" d="M8 29.3346C8 27.8619 9.19391 26.668 10.6667 26.668H53.3333C54.8061 26.668 56 27.8619 56 29.3346V53.3346C56 54.8074 54.8061 56.0013 53.3333 56.0013H10.6667C9.19391 56.0013 8 54.8074 8 53.3346V29.3346ZM13.3333 32.0013V50.668H50.6667V32.0013H13.3333Z" fill="#00ACB2"/>
<path fill-rule="evenodd" clip-rule="evenodd" d="M21.3346 42.5508C22.8074 42.5508 24.0013 43.7447 24.0013 45.2175V53.1955C24.0013 54.6682 22.8074 55.8621 21.3346 55.8621C19.8619 55.8621 18.668 54.6682 18.668 53.1955V45.2175C18.668 43.7447 19.8619 42.5508 21.3346 42.5508Z" fill="#00ACB2"/>
<path fill-rule="evenodd" clip-rule="evenodd" d="M31.9987 42.5312C33.4715 42.5312 34.6654 43.7252 34.6654 45.1979V53.1979C34.6654 54.6707 33.4715 55.8646 31.9987 55.8646C30.5259 55.8646 29.332 54.6707 29.332 53.1979V45.1979C29.332 43.7252 30.5259 42.5312 31.9987 42.5312Z" fill="#00ACB2"/>
<path fill-rule="evenodd" clip-rule="evenodd" d="M42.6667 42.5508C44.1394 42.5508 45.3333 43.7447 45.3333 45.2175V53.1955C45.3333 54.6682 44.1394 55.8621 42.6667 55.8621C41.1939 55.8621 40 54.6682 40 53.1955V45.2175C40 43.7447 41.1939 42.5508 42.6667 42.5508Z" fill="#00ACB2"/>
</svg>
