<svg width="61" height="50" viewBox="0 0 61 50" fill="none" xmlns="http://www.w3.org/2000/svg">
<path d="M49.3164 4.68528C53.215 8.59461 54.6817 13.9999 53.7164 19.0319C55.231 19.4586 56.6657 20.2666 57.8604 21.4533C61.6044 25.1706 61.6044 31.1973 57.8604 34.9119L43.335 49.3333L35.2764 41.3333L27.335 49.2933L4.72169 26.6479C-0.886311 20.3653 -0.675644 10.7173 5.35369 4.68528C11.3937 -1.35205 21.055 -1.55472 27.3377 4.07728C33.6017 -1.54672 43.2817 -1.36005 49.3164 4.68528ZM32.567 25.2399C30.9244 26.8693 30.9244 29.4986 32.567 31.1279L43.335 41.8186L54.103 31.1279C55.7457 29.4986 55.7457 26.8693 54.103 25.2399C52.439 23.5866 49.7244 23.5866 48.055 25.2453L43.3297 29.9226L39.5777 26.1999L38.6097 25.2399C36.9457 23.5866 34.231 23.5866 32.567 25.2399ZM9.12702 8.45861C5.15369 12.4319 4.95369 18.7919 8.61502 22.9946L27.335 41.7439L31.4924 37.5786L28.8097 34.9119C25.0657 31.1973 25.0657 25.1706 28.8097 21.4533C32.5537 17.7386 38.623 17.7386 42.367 21.4533L43.335 22.4133L44.303 21.4533C45.4364 20.3306 46.783 19.5466 48.2097 19.1013C49.319 15.4559 48.4177 11.3359 45.5404 8.45328C41.5404 4.44795 35.087 4.28528 30.9004 8.04528L27.3404 11.2399L23.7777 8.04795C19.5777 4.28261 13.1377 4.44795 9.12702 8.45861Z" fill="#00ACB2"/>
</svg>
