<svg width="60" height="54" viewBox="0 0 60 54" fill="none" xmlns="http://www.w3.org/2000/svg">
<path fill-rule="evenodd" clip-rule="evenodd" d="M16.9426 5.66536C15.7032 5.66536 14.6271 6.51943 14.3457 7.72667L11.2657 20.9394C11.0855 21.7123 10.5705 22.3648 9.8605 22.7195L8.95126 23.1738C7.14361 24.0768 6.0013 25.9241 6.0013 27.945V40.332C6.0013 41.0684 6.59823 41.6654 7.33463 41.6654H10.002C11.4748 41.6654 12.6687 42.8593 12.6687 44.332V45.6658C12.6687 47.1383 13.8624 48.332 15.335 48.332C16.8076 48.332 18.0013 47.1383 18.0013 45.6658V44.332C18.0013 42.8593 19.1952 41.6654 20.668 41.6654H39.3346C40.8074 41.6654 42.0013 42.8593 42.0013 44.332V45.6654C42.0013 47.1367 43.1959 48.332 44.6701 48.332C46.1441 48.332 47.3388 47.1368 47.3388 45.6654V44.332C47.3388 42.8593 48.5327 41.6654 50.0054 41.6654H52.668C53.4044 41.6654 54.0013 41.0685 54.0013 40.332V27.9428C54.0013 25.9228 52.86 24.0761 51.0532 23.1726L50.1463 22.7192C49.4289 22.3606 48.911 21.698 48.7362 20.9153L45.7962 7.7508C45.5241 6.53219 44.4426 5.66536 43.1937 5.66536H16.9426ZM9.15159 6.5159C9.99578 2.89442 13.224 0.332031 16.9426 0.332031H43.1937C46.94 0.332031 50.1848 2.93188 51.0013 6.58835L53.6659 18.5195C57.1474 20.3656 59.3346 23.988 59.3346 27.9428V40.332C59.3346 44.014 56.3499 46.9987 52.668 46.9987H52.5614C51.9263 50.7832 48.633 53.6654 44.6701 53.6654C40.7071 53.6654 37.4138 50.7832 36.7786 46.9987H23.2241C22.5895 50.7823 19.299 53.6654 15.335 53.6654C11.3711 53.6654 8.0805 50.7824 7.44589 46.9987H7.33463C3.65277 46.9987 0.667969 44.014 0.667969 40.332V27.945C0.667969 23.9832 2.86286 20.3548 6.35528 18.5118L9.15159 6.5159Z" fill="#00ACB2"/>
</svg>
